<svg width="18" height="20" viewBox="0 0 18 20" fill="none" xmlns="http://www.w3.org/2000/svg">
<path d="M16.5 2.1875H14.0625V1.25C14.0625 1.10082 14.0032 0.957742 13.8977 0.852252C13.7923 0.746763 13.6492 0.6875 13.5 0.6875C13.3508 0.6875 13.2077 0.746763 13.1023 0.852252C12.9968 0.957742 12.9375 1.10082 12.9375 1.25V2.1875H5.0625V1.25C5.0625 1.10082 5.00324 0.957742 4.89775 0.852252C4.79226 0.746763 4.64918 0.6875 4.5 0.6875C4.35082 0.6875 4.20774 0.746763 4.10225 0.852252C3.99676 0.957742 3.9375 1.10082 3.9375 1.25V2.1875H1.5C1.1519 2.1875 0.818064 2.32578 0.571922 2.57192C0.325781 2.81806 0.1875 3.1519 0.1875 3.5V18.5C0.1875 18.8481 0.325781 19.1819 0.571922 19.4281C0.818064 19.6742 1.1519 19.8125 1.5 19.8125H16.5C16.8481 19.8125 17.1819 19.6742 17.4281 19.4281C17.6742 19.1819 17.8125 18.8481 17.8125 18.5V3.5C17.8125 3.1519 17.6742 2.81806 17.4281 2.57192C17.1819 2.32578 16.8481 2.1875 16.5 2.1875ZM1.5 3.3125H3.9375V4.25C3.9375 4.39918 3.99676 4.54226 4.10225 4.64775C4.20774 4.75324 4.35082 4.8125 4.5 4.8125C4.64918 4.8125 4.79226 4.75324 4.89775 4.64775C5.00324 4.54226 5.0625 4.39918 5.0625 4.25V3.3125H12.9375V4.25C12.9375 4.39918 12.9968 4.54226 13.1023 4.64775C13.2077 4.75324 13.3508 4.8125 13.5 4.8125C13.6492 4.8125 13.7923 4.75324 13.8977 4.64775C14.0032 4.54226 14.0625 4.39918 14.0625 4.25V3.3125H16.5C16.5497 3.3125 16.5974 3.33225 16.6326 3.36742C16.6677 3.40258 16.6875 3.45027 16.6875 3.5V6.6875H1.3125V3.5C1.3125 3.45027 1.33225 3.40258 1.36742 3.36742C1.40258 3.33225 1.45027 3.3125 1.5 3.3125ZM16.5 18.6875H1.5C1.45027 18.6875 1.40258 18.6677 1.36742 18.6326C1.33225 18.5974 1.3125 18.5497 1.3125 18.5V7.8125H16.6875V18.5C16.6875 18.5497 16.6677 18.5974 16.6326 18.6326C16.5974 18.6677 16.5497 18.6875 16.5 18.6875ZM7.3125 10.25V16.25C7.3125 16.3992 7.25324 16.5423 7.14775 16.6477C7.04226 16.7532 6.89918 16.8125 6.75 16.8125C6.60082 16.8125 6.45774 16.7532 6.35225 16.6477C6.24676 16.5423 6.1875 16.3992 6.1875 16.25V11.1603L5.50125 11.5034C5.43514 11.5364 5.36317 11.5561 5.28947 11.5613C5.21576 11.5664 5.14176 11.5571 5.07168 11.5336C5.0016 11.5102 4.93682 11.4732 4.88103 11.4248C4.82525 11.3763 4.77956 11.3174 4.74656 11.2512C4.71357 11.1851 4.69392 11.1132 4.68874 11.0395C4.68355 10.9658 4.69294 10.8918 4.71636 10.8217C4.73977 10.7516 4.77676 10.6868 4.82522 10.631C4.87367 10.5753 4.93264 10.5296 4.99875 10.4966L6.49875 9.74656C6.58452 9.70374 6.67982 9.68355 6.77558 9.68791C6.87135 9.69227 6.96442 9.72104 7.04594 9.77147C7.12747 9.82191 7.19475 9.89235 7.2414 9.9761C7.28805 10.0598 7.31253 10.1541 7.3125 10.25ZM12.8972 12.9922L10.875 15.6875H12.75C12.8992 15.6875 13.0423 15.7468 13.1477 15.8523C13.2532 15.9577 13.3125 16.1008 13.3125 16.25C13.3125 16.3992 13.2532 16.5423 13.1477 16.6477C13.0423 16.7532 12.8992 16.8125 12.75 16.8125H9.75C9.64554 16.8125 9.54314 16.7834 9.45428 16.7285C9.36541 16.6736 9.2936 16.595 9.24689 16.5016C9.20017 16.4081 9.18039 16.3035 9.18977 16.1995C9.19915 16.0954 9.23732 15.9961 9.3 15.9125L12 12.3125C12.0777 12.2103 12.1337 12.0933 12.1643 11.9686C12.195 11.844 12.1997 11.7143 12.1782 11.5878C12.1568 11.4612 12.1095 11.3404 12.0394 11.2329C11.9693 11.1253 11.8779 11.0333 11.7708 10.9625C11.6636 10.8918 11.5431 10.8437 11.4167 10.8215C11.2903 10.7992 11.1606 10.8031 11.0358 10.833C10.9109 10.8629 10.7935 10.9181 10.6909 10.9952C10.5882 11.0723 10.5025 11.1697 10.4391 11.2812C10.4055 11.3512 10.3579 11.4134 10.2991 11.4641C10.2404 11.5147 10.1718 11.5527 10.0976 11.5755C10.0235 11.5984 9.94546 11.6056 9.86838 11.5969C9.79131 11.5881 9.71688 11.5635 9.64977 11.5246C9.58266 11.4857 9.52433 11.4334 9.47843 11.3708C9.43253 11.3083 9.40006 11.237 9.38306 11.1613C9.36606 11.0856 9.3649 11.0072 9.37964 10.9311C9.39439 10.8549 9.42473 10.7826 9.46875 10.7188C9.61011 10.4761 9.79956 10.2648 10.0255 10.0979C10.2514 9.93104 10.509 9.81206 10.7825 9.74827C11.056 9.68447 11.3397 9.67722 11.6161 9.72694C11.8925 9.77667 12.1559 9.88233 12.39 10.0374C12.6242 10.1926 12.8242 10.3939 12.9777 10.629C13.1313 10.8642 13.2353 11.1282 13.2832 11.4049C13.3311 11.6817 13.322 11.9653 13.2565 12.2384C13.1909 12.5115 13.0702 12.7683 12.9019 12.9931L12.8972 12.9922Z" fill="#111812"/>
</svg>
