<svg width="34" height="34" viewBox="0 0 34 34" fill="none" xmlns="http://www.w3.org/2000/svg">
<g clip-path="url(#clip0_4906_4236)">
<path d="M22.1173 10.1813L6.57282 12.0166C5.96005 12.0901 5.38486 12.3508 4.92566 12.7631C4.46646 13.1755 4.14561 13.7194 4.00685 14.3208C3.86809 14.9221 3.91817 15.5516 4.15027 16.1235C4.38236 16.6953 4.78518 17.1817 5.30379 17.5163L10.2579 20.687C10.3747 20.7656 10.4747 20.8667 10.552 20.9844C10.6293 21.1021 10.6823 21.234 10.7081 21.3724L11.6503 27.1783C11.7311 27.6717 11.9339 28.137 12.2403 28.532C12.5467 28.927 12.947 29.2392 13.4047 29.4402C13.8624 29.6412 14.3631 29.7246 14.8613 29.6829C15.3595 29.6411 15.8393 29.4756 16.2572 29.2012C16.646 28.9402 16.9715 28.5956 17.2099 28.1926L25.0683 14.6558C25.3463 14.1744 25.4849 13.6252 25.4689 13.0695C25.4529 12.5138 25.2828 11.9736 24.9776 11.5089C24.6724 11.0443 24.2442 10.6736 23.7406 10.4382C23.237 10.2028 22.6779 10.112 22.1257 10.1758L22.1173 10.1813ZM23.3334 13.6538L15.475 27.1906C15.3698 27.3653 15.2137 27.5037 15.0276 27.5871C14.8415 27.6706 14.6344 27.6952 14.434 27.6576C14.2335 27.62 14.0494 27.5221 13.9062 27.3769C13.763 27.2316 13.6676 27.0461 13.6329 26.8452L12.6823 21.0447C12.6688 20.9678 12.6508 20.8917 12.6284 20.8169L18.3872 17.0343C18.6089 16.8887 18.7636 16.661 18.8174 16.4012C18.8712 16.1415 18.8196 15.8711 18.674 15.6494C18.5284 15.4278 18.3007 15.273 18.041 15.2192C17.7813 15.1654 17.5109 15.217 17.2892 15.3626L11.5304 19.1453C11.4707 19.095 11.408 19.0483 11.3428 19.0053L6.39701 15.8291C6.22639 15.7174 6.09401 15.5562 6.01761 15.3671C5.94121 15.178 5.92445 14.9701 5.96957 14.7712C6.01469 14.5723 6.11953 14.392 6.27005 14.2544C6.42056 14.1168 6.60954 14.0285 6.81166 14.0014L22.3562 12.166C22.5391 12.1462 22.724 12.1773 22.8905 12.2559C23.0569 12.3344 23.1985 12.4574 23.2995 12.6112C23.4005 12.765 23.4572 12.9438 23.4631 13.1277C23.4691 13.3117 23.4242 13.4937 23.3334 13.6538Z" fill="#111812"/>
</g>
<defs>
<clipPath id="clip0_4906_4236">
<rect width="24" height="24" fill="white" transform="translate(0 13.5581) rotate(-33.2988)"/>
</clipPath>
</defs>
</svg>
